<svg xmlns="http://www.w3.org/2000/svg" viewBox="0 0 256 256" role="img" aria-labelledby="title desc">
  <title id="title">Couple Planner</title>
  <desc id="desc">A warm red app mark with two interlocking white hearts.</desc>
  <rect width="256" height="256" rx="56" fill="#E63B2E"/>
  <path fill="#FFFFFF" d="M83.7 67.8c17.6 0 32.2 9.3 44.3 25.2 12.1-15.9 26.7-25.2 44.3-25.2 29.6 0 52.7 23 52.7 54.4 0 37.4-33.3 65.7-85.1 103.9a19.8 19.8 0 0 1-23.8 0C64.3 187.9 31 159.6 31 122.2c0-31.4 23.1-54.4 52.7-54.4Zm0 23.2c-16.2 0-28.7 12.8-28.7 31.2 0 24 23.5 47.1 73 83.9 49.5-36.8 73-59.9 73-83.9 0-18.4-12.5-31.2-28.7-31.2-13 0-24.5 8.8-34.5 26.3a11.3 11.3 0 0 1-19.6 0C108.2 99.8 96.7 91 83.7 91Z"/>
  <path fill="#FFDAD4" d="M128 101.9c10.8-15.7 24.5-24.8 41.3-24.8 26.5 0 46.2 20.6 46.2 48.3 0 30.9-25 56.2-74.9 93l-12.6 9.3-12.6-9.3c-49.9-36.8-74.9-62.1-74.9-93 0-27.7 19.7-48.3 46.2-48.3 16.8 0 30.5 9.1 41.3 24.8Zm-38.7 3.7c-9.3 0-16.7 7.6-16.7 18.6 0 13.5 12.4 28.5 55.4 61.1 43-32.6 55.4-47.6 55.4-61.1 0-11-7.4-18.6-16.7-18.6-8.2 0-16.6 7.4-25.1 22.1a15.7 15.7 0 0 1-27.2 0c-8.5-14.7-16.9-22.1-25.1-22.1Z" opacity=".92"/>
</svg>
