<svg xmlns="http://www.w3.org/2000/svg" viewBox="0 0 64 64">
  <rect width="64" height="64" rx="14" fill="#E63B2E"/>
  <g transform="translate(0 -5)">
    <path fill="#FFFFFF" d="M20.8 16.6c4.4 0 8 2.4 11.2 6.4 3.2-4 6.8-6.4 11.2-6.4 7.5 0 13.4 5.9 13.4 13.9 0 9.5-8.6 16.8-21.6 26.4a5 5 0 0 1-6 0C16 47.3 7.4 40 7.4 30.5c0-8 5.9-13.9 13.4-13.9Zm0 6c-4.2 0-7.4 3.3-7.4 7.9 0 6.1 6.2 12.2 18.6 21.4 12.4-9.2 18.6-15.3 18.6-21.4 0-4.6-3.2-7.9-7.4-7.9-3.3 0-6.2 2.2-8.7 6.7a2.9 2.9 0 0 1-5 0c-2.5-4.5-5.4-6.7-8.7-6.7Z"/>
  </g>
</svg>
